<svg xmlns="http://www.w3.org/2000/svg" viewBox="0 0 974.3 813.4">
  <path
    d="M754.5 533.3c-16-7.5-35.1-.5-42.5 15.5-53.5 114.6-169.7 194-304.5 194-185.6 0-336-150.4-336-336s150.4-336 336-336c134.8 0 251 79.4 304.5 194 7.5 16 26.5 22.9 42.5 15.5s22.9-26.5 15.5-42.5c-.1-.1-.1-.2-.2-.3C706 101.3 567.7 6.9 407.4 6.9c-220.9 0-400 179.1-400 400 0 57 12 111.2 33.5 160.3 38.9 98.7 13.5 159.7-33.4 239.7 80-46.9 141.1-72.3 239.7-33.4C296.3 795 350.5 807 407.5 807c160.4 0 298.7-94.4 362.5-230.7 0-.1.1-.2.1-.2 7.4-16.3.4-35.3-15.6-42.8z"
    style="fill: #64d26e"
  />
  <path
    d="M764.9 336.7c18.9 0 35.1 6.8 48.7 20.5 13.6 13.7 20.4 30.3 20.4 50 0 19.5-6.7 36-20.1 49.5-13.4 13.5-29.7 20.2-48.8 20.2-20 0-36.7-6.9-49.9-20.8s-19.9-30.3-19.9-49.4c0-12.8 3.1-24.5 9.3-35.2s14.7-19.2 25.5-25.5c10.7-6.2 22.3-9.3 34.8-9.3zm-.3 24.9c-12.4 0-22.7 4.3-31.2 12.9-8.4 8.6-12.6 19.5-12.6 32.8 0 14.8 5.3 26.4 15.9 35 8.2 6.7 17.7 10.1 28.3 10.1 12.1 0 22.3-4.4 30.8-13.1s12.7-19.4 12.7-32.2c0-12.7-4.3-23.5-12.8-32.3-8.4-8.9-18.8-13.2-31.1-13.2zM860.5 340h24.4l57.1 87.8V340h25.4v133.5H943l-57-87.6v87.6h-25.4l-.1-133.5zM147.6 341.2c0-2.5 1.8-4.5 4.3-4.5s4.5 2 4.5 4.5v94.4l56.2-58.1c.9-.9 1.8-1.3 3.1-1.3 2.3 0 4.1 1.8 4.1 4.1 0 1.3-.4 2-1.4 3l-33.6 34.1 35.9 44.3c.9 1.1 1.3 2 1.3 3.2 0 2.5-1.8 4.1-4.3 4.1-1.6 0-2.5-.5-3.8-2l-35.3-43.3-22.2 22.4v18.5c0 2.7-1.8 4.5-4.3 4.5s-4.5-1.8-4.5-4.5V341.2zM237.3 423v-.4c0-25.7 19.9-47.9 47.2-47.9 27.1 0 46.8 21.9 46.8 47.5v.4c0 25.7-19.9 47.9-47.2 47.9-27.1 0-46.8-21.8-46.8-47.5zm84.4 0v-.4c0-22.1-16.5-39.6-37.7-39.6-21.7 0-37.3 17.7-37.3 39.3v.4c0 22.1 16.5 39.7 37.7 39.7 21.7-.1 37.3-17.9 37.3-39.4zM358.3 380.7c0-2.5 1.8-4.5 4.3-4.5s4.5 1.8 4.5 4.5v12.6c5.9-9.5 14.2-18.5 30.5-18.5 16 0 25.8 9.1 30.8 19.7 5.9-10.2 15.8-19.7 33-19.7 21.7 0 35.2 15.2 35.2 38.2v51.7c0 2.7-1.8 4.5-4.3 4.5s-4.5-1.8-4.5-4.5v-50.6c0-19.7-10.2-31.2-27.1-31.2-15.4 0-28.9 11.8-28.9 32.3v49.5c0 2.7-1.8 4.5-4.3 4.5s-4.5-1.8-4.5-4.5v-51.1c0-19-10.4-30.7-26.7-30.7S367 397.2 367 415.7v49c0 2.7-1.8 4.5-4.3 4.5s-4.5-1.8-4.5-4.5l.1-84zM528.9 380.7c0-2.5 1.8-4.5 4.3-4.5s4.5 1.8 4.5 4.5v12.6c5.9-9.5 14.2-18.5 30.5-18.5 16 0 25.8 9.1 30.9 19.7 5.9-10.2 15.8-19.7 33-19.7 21.7 0 35.2 15.2 35.2 38.2v51.7c0 2.7-1.8 4.5-4.3 4.5s-4.5-1.8-4.5-4.5v-50.6c0-19.7-10.2-31.2-27.1-31.2-15.4 0-28.9 11.8-28.9 32.3v49.5c0 2.7-1.8 4.5-4.3 4.5s-4.5-1.8-4.5-4.5v-51.1c0-19-10.4-30.7-26.7-30.7s-29.2 14.3-29.2 32.8v49c0 2.7-1.8 4.5-4.3 4.5s-4.5-1.8-4.5-4.5v-84h-.1z"
    style="fill: #3c3c3c"
  />
</svg>
