<svg xmlns="http://www.w3.org/2000/svg" id="a8897f4c-2937-4134-8b3a-fee1040aeff6" viewBox="0 0 1066.11 824.2"><polygon points="962.55 394.71 946.67 466.13 933.78 524.07 923.51 570.28 910.63 628.22 868.53 817.51 346.91 576.48 308.57 558.76 260.04 536.33 221.68 518.61 175.55 497.29 201.7 459.24 223.45 427.6 250.97 387.57 272.71 355.95 517.37 0 776.55 229.8 822.7 270.72 859.5 303.35 905.67 344.27 962.55 394.71" style="fill: #ebebeb"></polygon><path d="M204.35,604.83c-34.88-19.44-56.59-46-64.54-78.9-5.89-24.44-4.2-51.93,5-81.73a218.83,218.83,0,0,1,30.44-61.48c70.64-100,77-165.14,69.92-202.19-7.77-40.62-33-57.49-33.28-57.66l1.09-1.68c.26.17,26.18,17.44,34.14,58.88,4.59,23.9,2.43,51.14-6.41,81-11,37.14-32.49,78.46-63.82,122.82a216.9,216.9,0,0,0-30.17,60.92c-15.16,48.87-17.3,116,58.57,158.3Z" style="fill: #3c3c3c"></path><path d="M221.13,604.83c34.88-19.44,56.59-46,64.54-78.9,5.9-24.44,4.2-51.93-5-81.73a218.83,218.83,0,0,0-30.44-61.48c-70.64-100-77-165.14-69.92-202.19,7.77-40.62,33-57.49,33.28-57.66l-1.09-1.68c-.26.17-26.18,17.44-34.14,58.88-4.59,23.9-2.43,51.14,6.41,81,11,37.14,32.49,78.46,63.83,122.82a217.14,217.14,0,0,1,30.16,60.92c15.16,48.87,17.3,116-58.57,158.3Z" style="fill: #2f2e41"></path><path d="M981.35,520.83c-34.88-19.44-56.59-46-64.54-78.9-5.89-24.44-4.2-51.93,5-81.73a218.83,218.83,0,0,1,30.44-61.48c70.64-100,77-165.14,69.92-202.19-7.77-40.62-33-57.49-33.28-57.66L990,37.19c.26.17,26.18,17.44,34.14,58.88,4.59,23.9,2.43,51.14-6.41,81-11,37.14-32.49,78.46-63.82,122.82a216.9,216.9,0,0,0-30.17,60.92c-15.16,48.87-17.3,116,58.57,158.3Z" style="fill: #2f2e41"></path><path d="M998.13,520.83c34.88-19.44,56.59-46,64.54-78.9,5.9-24.44,4.2-51.93-5-81.73a218.83,218.83,0,0,0-30.44-61.48c-70.64-100-77-165.14-69.92-202.19C965,55.91,990.3,39,990.55,38.87l-1.09-1.68c-.26.17-26.18,17.44-34.14,58.88-4.59,23.9-2.43,51.14,6.41,81,11,37.14,32.49,78.46,63.83,122.82a217.14,217.14,0,0,1,30.16,60.92c15.16,48.87,17.3,116-58.57,158.3Z" style="fill: #3c3c3c"></path><path d="M467.81,299.94c-26.2-44.28-78.05-46.34-78.05-46.34s-50.52-6.46-82.93,61c-30.21,62.86-71.9,123.55-6.72,138.27l11.78-36.65,7.29,39.38a254.42,254.42,0,0,0,27.89.47c69.82-2.25,136.3.66,134.16-24.39C478.38,398.36,493,342.55,467.81,299.94Z" style="fill: #692896"></path><path d="M360.25,392.62c9,20,14.72,43.79,18.12,70.24l72.5-4.54c-16.67-23.61-22.2-50.72-15.86-81.56Z" style="fill: #ffb8b8"></path><path d="M360.25,392.62c9,20,14.72,43.79,18.12,70.24l72.5-4.54c-16.67-23.61-22.2-50.72-15.86-81.56Z" style="opacity: 0.20000000298023224;isolation: isolate"></path><path d="M23.87,772.94S-13.65,793,5.39,810.2s44.19-22.71,44.19-22.71Z" style="fill: #ffb8b8"></path><polygon points="482.59 714.33 482 741.79 480.75 801.12 480.75 801.13 480.39 818.31 240.44 818.31 250.19 764.16 250.2 764.12 258.93 715.66 262.83 693.95 262.83 693.94 459.94 666.75 482.59 714.33" style="fill: #3c3c3c"></polygon><path d="M482.59,714.34,482,741.8c-69.73-1.79-177.83-18.63-223.07-26.15l3.9-21.7,197.1-27.19Z" style="fill: #554b00"></path><circle cx="395.36" cy="355.24" r="56.64" style="fill: #ffb8b8"></circle><path d="M504.11,744.92s6.8,61.17-34,56.64l-6.8-61.17-36.25-36.25-101.95-2.26-74.76,70.23s-2.27-72.5,6.79-79.3,29.46-22.65,29.46-22.65V658.83L225.44,534.22s36.25-74.76,65.71-77l38.51-2.26s13.6-6.8,13.6-9.07S341,425.47,352.32,430c0,0,1-23.24,13-16.15,0,0,37.58,29.45,75.74,1.29,0,0,17.78-3.26,15.52,5.8s0,15.86,4.53,15.86S486,443.6,486,448.13c0,1,1.47,10.35,3.78,24.47v0c8.41,51.45,27.94,165.82,27.94,165.82S538.1,667.89,504.11,744.92Z" style="fill: #b4af46"></path><path d="M241.3,522.89l-15.86,11.33L80.45,720l-77,61.17s43-6.79,34,29.45L302.47,658.83Z" style="fill: #b4af46"></path><path d="M489.77,472.6v0c-3,17.72-101.2,14-114.8,14s-24.92-2.26-38.51-11.32-6.8-20.39-6.8-20.39,11.58-8.82,11.58-11.09S339,423.45,350.3,428c0,0,1-23.25,13-16.16,0,0,39.6,31.47,77.76,3.31,0,0,17.78-3.26,15.52,5.8s0,15.86,4.53,15.86S486,443.6,486,448.13C486,449.1,487.46,458.48,489.77,472.6Z" style="fill: #554b00"></path><path d="M478.06,388.09s-18.13-38.51-36.25-20.39S462.2,413,462.2,413Z" style="fill: #ffb8b8"></path><path d="M478.06,379s-28,35.37-36.65,38.07c0,0,25.32,100.13,57,127.32l18.12,92.89s77-31.72,58.91-83.83l-.54-1.55a514.06,514.06,0,0,0-62.1-122.41Z" style="fill: #b4af46"></path><polygon points="463.1 483.93 518.84 637.31 498.45 544.42 463.1 483.93" style="opacity: 0.20000000298023224;isolation: isolate"></polygon><polygon points="456.23 295.68 405 268.85 334.27 279.82 319.63 344.46 356.06 343.06 366.24 319.31 366.24 342.67 383.05 342.02 392.81 304.21 398.91 344.46 458.67 343.24 456.23 295.68" style="fill: #692896"></polygon><path d="M940.13,644.34,969.19,748s-6,91.83,22,73.86c28.6-18.39,18-95.82,18-95.82l-16.76-93Z" style="fill: #c39093"></path><path d="M955.66,353.51l24,24V491.87S993.78,513,991,518.69s-5.64,5.65-2.82,9.88,5.65,7.06,2.82,9.89-2.82,9.88,0,12.7,8.47,7.06,4.24,11.3-9.88,1.41-4.24,16.94,15.53,19.76,12.71,25.41-2.83,19.76-2.83,19.76L940.13,633,927.42,473.51Z" style="fill: #05730f"></path><polygon points="1003.66 623.16 933.07 625.99 935.89 655.63 998.01 644.34 1003.66 623.16" style="fill: #3c3c3c"></polygon><polygon points="809.54 205.99 801.07 290.69 887.19 303.4 893.54 254.69 899.89 205.99 809.54 205.99" style="fill: #c39093"></polygon><polygon points="809.54 205.53 801.07 290.23 887.19 302.94 893.54 254.23 899.89 205.53 809.54 205.53" style="opacity: 0.10000000149011612;isolation: isolate"></polygon><path d="M622.48,609l48,103.06s8.47,48,21.18,49.41,25.41-49.41,25.41-49.41l-16.94-26.82L680.36,609Z" style="fill: #c39093"></path><path d="M951.06,819.31H679.69c2.15-34,3.5-55,3.5-55l3.6-5.68,17.48-27.46,12.48-19.6,4.35-6.85,1.61-2.53,17.09-3.12,176.33-32.17A215.31,215.31,0,0,0,928.45,705c1.2,2.73,2.5,5.47,3.88,8.17,4.43,8.66,9.84,16.85,16.27,22.89,1.47,1.37,2.53,5,3.21,10.67C953.51,760.57,953,786.23,951.06,819.31Z" style="fill: #3c3c3c"></path><circle cx="856.83" cy="165.75" r="67.76" style="fill: #c39093"></circle><path d="M705.78,304.1l-9.89-5.64s-43.76,29.64-57.88,96-24,83.29-24,83.29-14.12,2.82-4.23,12.71,9.88,8.47,1.41,14.11-14.12-5.64-8.47,5.65,12.7,8.47,7.06,15.53-15.53,7.06-9.89,12.71-5.64,18.35,1.42,24,9.88,7,9.88,16.94A50.12,50.12,0,0,0,614,596.34h73.41s-14.11-26.83-9.88-32.47,5.65-11.3,2.82-14.12-11.29,2.82-2.82-4.24,11.3-2.82,8.47-11.29-8.47-4.24-2.82-8.47,9.88-2.82,7.06-7.06-8.47-4.23-2.83-7.06,9.89,0,8.47-7.06-2.82-4.23,0-7.06,32.47-98.82,32.47-101.64S705.78,304.1,705.78,304.1Z" style="fill: #05730f"></path><polygon points="691.66 590.69 602.72 596.34 625.31 617.51 687.42 618.93 691.66 590.69" style="fill: #3c3c3c"></polygon><path d="M717.07,696.57l-18.35,33.88s55.06,7.06,74.82,14.12,70.59,16.94,70.59,16.94l12.7-49.41Z" style="fill: #3c3c3c"></path><polygon points="878.01 712.1 893.54 758.69 955.66 745.98 948.6 702.22 878.01 712.1" style="fill: #3c3c3c"></polygon><path d="M903.42,256.1s-4.23-2.82-14.11,2.83-42.36,8.47-57.89-8.47-26.82-31.06-31.06-28.24-7.05,35.3-7.05,35.3l-14.12,11.29-83.3,29.65L703,489l12.71,43.77s-9.88,33.88,2.82,53.65-7.06,26.82-7.06,26.82S707.19,618.93,710,633s-2.82,66.36-2.82,66.36,120,53.64,245.64,7.06l-14.11-53.65-7.06-120s7.06-19.77,5.65-28.24,42.35-127.06,42.35-127.06-7.06-59.29-43.77-72-42.35-25.42-42.35-25.42S910.48,261.75,903.42,256.1Z" style="fill: #05730f"></path><path d="M788.6,174.43s-7-10.55-4.33-21.92a66.11,66.11,0,0,0,1.89-19.76s5.69-18.4,11.37-28.69,3-14.61,20.84-17.86S828.93,59.67,876,84.84a13.81,13.81,0,0,0,14.35,5.42c9.74-1.9,13.26,11.64,13.26,11.64s6.49-3.79,8.93,1.62,19.8-3.25,19.8,33.29S912.6,206,912.6,206s1.45-61.47-30.76-67.69S815,113.94,806.6,137.22,788.6,174.43,788.6,174.43Z" style="fill: #3c3c3c"></path><ellipse cx="913.31" cy="180.57" rx="6.35" ry="8.47" style="fill: #c39093"></ellipse></svg>