<svg xmlns="http://www.w3.org/2000/svg" id="b3df86d2-2022-47c6-a781-bb5144daf06b" viewBox="0 0 802.03 590.92"><rect x="464.91" y="218.81" width="337.12" height="9.89" style="fill: #e6e6e6"></rect><rect x="492.77" y="136.1" width="85.4" height="85.4" style="fill: #e6e6e6"></rect><rect x="509.86" y="153.18" width="51.24" height="51.24" style="fill: #ccc"></rect><rect x="684.26" y="136.1" width="21.58" height="85.4" style="fill: #e6e6e6"></rect><rect x="684.26" y="149.59" width="21.58" height="9.89" style="fill: #ccc"></rect><rect x="684.26" y="192.74" width="21.58" height="9.89" style="fill: #ccc"></rect><rect x="651" y="136.1" width="21.58" height="85.4" style="fill: #e6e6e6"></rect><rect x="651" y="149.59" width="21.58" height="9.89" style="fill: #ccc"></rect><rect x="651" y="192.74" width="21.58" height="9.89" style="fill: #ccc"></rect><rect x="722.92" y="136.1" width="21.58" height="85.4" transform="translate(-3.16 344.1) rotate(-26.34)" style="fill: #e6e6e6"></rect><rect x="712.15" y="152.11" width="21.58" height="9.89" transform="translate(5.37 337.06) rotate(-26.34)" style="fill: #ccc"></rect><rect x="731.29" y="190.78" width="21.58" height="9.89" transform="translate(-9.8 349.57) rotate(-26.34)" style="fill: #ccc"></rect><polygon points="524.69 170.38 535.55 189.2 546.42 208.02 524.69 208.02 502.96 208.02 513.82 189.2 524.69 170.38" style="fill: #e6e6e6"></polygon><polygon points="543.57 173.98 554.43 192.8 565.3 211.62 543.57 211.62 521.84 211.62 532.7 192.8 543.57 173.98" style="fill: #e6e6e6"></polygon><circle cx="551.21" cy="162.17" r="6.29" style="fill: #e6e6e6"></circle><rect x="464.91" y="83.06" width="337.12" height="9.89" style="fill: #e6e6e6"></rect><rect x="688.75" y="0.35" width="85.4" height="85.4" style="fill: #e6e6e6"></rect><rect x="705.84" y="17.43" width="51.24" height="51.24" style="fill: #ccc"></rect><rect x="561.1" y="0.35" width="21.58" height="85.4" style="fill: #e6e6e6"></rect><rect x="561.1" y="13.84" width="21.58" height="9.89" style="fill: #ccc"></rect><rect x="561.1" y="56.99" width="21.58" height="9.89" style="fill: #ccc"></rect><rect x="594.36" y="0.35" width="21.58" height="85.4" style="fill: #e6e6e6"></rect><rect x="594.36" y="13.84" width="21.58" height="9.89" style="fill: #ccc"></rect><rect x="594.36" y="56.99" width="21.58" height="9.89" style="fill: #ccc"></rect><rect x="490.53" y="32.27" width="85.4" height="21.58" transform="translate(258.05 501.82) rotate(-63.66)" style="fill: #e6e6e6"></rect><rect x="539.05" y="10.51" width="9.89" height="21.58" transform="translate(283.54 499.37) rotate(-63.66)" style="fill: #ccc"></rect><rect x="519.91" y="49.19" width="9.89" height="21.58" transform="translate(238.23 503.73) rotate(-63.66)" style="fill: #ccc"></rect><polygon points="742.24 34.63 731.38 53.45 720.51 72.27 742.24 72.27 763.98 72.27 753.11 53.45 742.24 34.63" style="fill: #e6e6e6"></polygon><polygon points="723.37 38.23 712.5 57.05 701.63 75.87 723.37 75.87 745.1 75.87 734.23 57.05 723.37 38.23" style="fill: #e6e6e6"></polygon><circle cx="715.72" cy="26.42" r="6.29" style="fill: #e6e6e6"></circle><rect x="464.91" y="354.56" width="337.12" height="9.89" style="fill: #e6e6e6"></rect><rect x="688.75" y="271.85" width="85.4" height="85.4" style="fill: #e6e6e6"></rect><rect x="705.84" y="288.93" width="51.24" height="51.24" style="fill: #ccc"></rect><rect x="561.1" y="271.85" width="21.58" height="85.4" style="fill: #e6e6e6"></rect><rect x="561.1" y="285.33" width="21.58" height="9.89" style="fill: #ccc"></rect><rect x="561.1" y="328.48" width="21.58" height="9.89" style="fill: #ccc"></rect><rect x="594.36" y="271.85" width="21.58" height="85.4" style="fill: #e6e6e6"></rect><rect x="594.36" y="285.33" width="21.58" height="9.89" style="fill: #ccc"></rect><rect x="594.36" y="328.48" width="21.58" height="9.89" style="fill: #ccc"></rect><rect x="490.53" y="303.76" width="85.4" height="21.58" transform="translate(14.75 652.86) rotate(-63.66)" style="fill: #e6e6e6"></rect><rect x="539.05" y="282.01" width="9.89" height="21.58" transform="translate(40.23 650.41) rotate(-63.66)" style="fill: #ccc"></rect><rect x="519.91" y="320.68" width="9.89" height="21.58" transform="translate(-5.08 654.76) rotate(-63.66)" style="fill: #ccc"></rect><polygon points="742.24 306.13 731.38 324.95 720.51 343.77 742.24 343.77 763.98 343.77 753.11 324.95 742.24 306.13" style="fill: #e6e6e6"></polygon><polygon points="723.37 309.73 712.5 328.54 701.63 347.36 723.37 347.36 745.1 347.36 734.23 328.54 723.37 309.73" style="fill: #e6e6e6"></polygon><circle cx="715.72" cy="297.92" r="6.29" style="fill: #e6e6e6"></circle><ellipse cx="397.13" cy="562.71" rx="397.13" ry="28.21" style="fill: #e6e6e6"></ellipse><path d="M707.39,578.51c-64.76-11.53-135.57-9.61-209.85,0,33.86-28.59,63.07-57.17,29.22-85.75,66,13.63,75.29,12.25,148.75,0C658.47,521.34,690.35,549.92,707.39,578.51Z" style="fill: #692896"></path><path d="M706.73,578.51c-64.75-11.53-135.57-9.61-209.85,0,33.86-28.59,63.08-57.17,29.22-85.75,66,13.63,75.29,12.25,148.76,0C657.82,521.34,689.69,549.92,706.73,578.51Z" style="fill: #3c3c3c;opacity: 0.20000000298023224;isolation: isolate"></path><path d="M691.59,566.31c-55-9.2-115.16-7.67-178.26,0,28.76-22.81,53.58-45.63,24.83-68.44,56.09,10.87,64,9.77,126.35,0C650,520.68,677.12,543.5,691.59,566.31Z" style="fill: #692896"></path><circle cx="670.64" cy="500.24" r="29.31" style="fill: #145582"></circle><polygon points="537.59 466.25 557.9 469.63 568.05 498.97 538.72 517.02 504.87 466.25 536.46 466.25 537.59 466.25" style="fill: #ffb8b8"></polygon><circle cx="595.13" cy="463.99" r="47.38" style="fill: #ffb8b8"></circle><path d="M333.39,291.38S218.31,303.79,198,301.53,168.67,297,168.67,297s-13.54,18.05-6.77,26a48.85,48.85,0,0,0,13.54,11.28s12.41-3.39,21.43,0,100.41,18.05,116.21,4.51S333.39,291.38,333.39,291.38Z" style="fill: #3c3c3c"></path><path d="M341.28,543s-75.59-21.44-89.13-116.21v-9s-15,26.23-20.3,31.59c-6.21,6.2-28.21,62.05-27.08,67.69s0,7.9,0,7.9l-32.72-3.39V511.38s17.49-52.46,18.62-64.87,43.43-98.72,43.43-98.72,15.8-32.72,42.88,0,29.33,55.28,29.33,55.28l35,67.69Z" style="fill: #3c3c3c"></path><path d="M172.05,293.63,136,281.22s-33.85-24.82-25.95,0,44,79,54.15,73.34,22.37-19.65,19.65-21.67S163,316.2,172.05,293.63Z" style="fill: #3c3c3c"></path><path d="M176.42,504.72,147.27,519s-35.24,5.42-15.59,15.59,73.88,21,76.59,11.52,1.64-25.24-1.22-24.82S184.55,523.69,176.42,504.72Z" style="fill: #3c3c3c"></path><path d="M326.62,468.51S312,531.69,336.77,545.22s198.57,15.8,212.1-9,6.77-24.82,6.77-24.82l-36.1-40.62,29.33-2.25s0-9-10.15-10.16S497,445.94,469.9,453.84,427,438,427,438Z" style="fill: #b4af46"></path><polygon points="307.44 271.07 288.26 375.99 420.26 360.2 443.95 265.43 307.44 271.07" style="fill: #3f3d56"></polygon><polygon points="311.39 275.02 295.59 368.66 415.75 354.56 438.87 269.38 311.39 275.02" style="fill: #fff"></polygon><polygon points="292.77 377.12 288.26 375.99 286 380.5 322.1 480.92 325.5 479.62 326.62 473.02 292.77 377.12" style="fill: #b3b3b3"></polygon><polygon points="288.26 374.86 324.36 479.79 460.87 459.48 420.26 360.2 288.26 374.86" style="fill: #d0cde1"></polygon><polygon points="306.31 371.48 306.31 377.12 406.72 365.84 405.59 360.2 306.31 371.48" style="fill: #3f3d56"></polygon><polygon points="308.56 382.76 324.36 426.76 427.03 414.35 408.98 372.61 308.56 382.76" style="fill: #3f3d56"></polygon><path d="M437.18,444.81l-3.38-9s-25.95-45.13-39.49-36.11,28.2,53,28.2,53h13.54Z" style="fill: #ffb8b8"></path><path d="M351.44,451.58,348.05,438s-9-41.74,6.77-39.48,20.31,41.74,20.31,41.74l-1.13,9Z" style="fill: #ffb8b8"></path><path d="M378.51,445.94s-29.33-4.51-30.46,2.26-6.77,108.31,21.44,111.69S537.59,577.94,522.92,543s-37.23-30.46-37.23-30.46L389.8,522.66Z" style="fill: #b4af46"></path><polygon points="467.08 458.92 437.18 438.04 417.44 453.27 442.26 480.35 467.08 458.92" style="fill: #b4af46"></polygon><polygon points="386.98 479.22 391.49 522.1 469.33 517.58 401.64 516.46 386.98 479.22" style="opacity: 0.20000000298023224;isolation: isolate"></polygon><circle cx="618.52" cy="472.6" r="56.41" style="fill: #145582"></circle><polygon points="328.31 307.74 398.26 305.3 405.03 279.53 332.82 281.71 328.31 307.74" style="fill: #64d26e"></polygon><polygon points="310.26 322.4 416.31 319.02 417.44 314.5 311.39 318.24 310.26 322.4" style="fill: #e6e6e6"></polygon><polygon points="308 333.69 414.05 330.3 415.18 325.79 309.13 329.52 308 333.69" style="fill: #e6e6e6"></polygon><polygon points="306.87 342.71 412.92 339.33 414.05 334.81 308 338.55 306.87 342.71" style="fill: #e6e6e6"></polygon></svg>